	<?xml version="1.0" encoding="utf-8"?>
	<!-- Generator: Adobe Illustrator 22.1.0, SVG Export Plug-In . SVG Version: 6.00 Build 0)  -->
	<svg version="1.1" xmlns="http://www.w3.org/2000/svg" xmlns:xlink="http://www.w3.org/1999/xlink" x="0px" y="0px"
		viewBox="0 0 128 128" style="enable-background:new 0 0 128 128;" xml:space="preserve">
	<style type="text/css">
		.st0{fill:#FFFFFF;}
	</style>
	<g id="Слой_1">
	</g>
	<g id="Слой_2">
		<g>
			<path class="st0" d="M67.5,9.1L8.7,67.8c-2,2-5.2,2-7.2,0l0,0c-2-2-2-5.2,0-7.2L60.2,1.8c2-2,5.2-2,7.2,0l0,0
				C69.4,3.9,69.4,7.1,67.5,9.1z"/>
			<path class="st0" d="M60.2,126.5L1.5,67.8c-2-2-2-5.2,0-7.2l0,0c2-2,5.2-2,7.2,0l58.7,58.7c2,2,2,5.2,0,7.2l0,0
				C65.4,128.5,62.2,128.5,60.2,126.5z"/>
		</g>
	</g>
	</svg>
