<?xml version="1.0" encoding="utf-8"?>
<!-- Generator: Adobe Illustrator 22.1.0, SVG Export Plug-In . SVG Version: 6.00 Build 0)  -->
<svg version="1.1" id="Слой_1" xmlns="http://www.w3.org/2000/svg" xmlns:xlink="http://www.w3.org/1999/xlink" x="0px" y="0px"
	 viewBox="0 0 200 200" style="enable-background:new 0 0 200 200;" xml:space="preserve">
<g>
	<path d="M7.2,7C7.6,5.6,8,4.2,8.5,2.8C8.6,2.5,8.8,2.2,9,1.7c31.1,34.5,62.2,68.9,93.3,103.4c-30.6,31.3-61.2,62.5-91.8,93.8
		c-1.6-1.9-2.6-4.1-3-6.4c-0.1-0.3-0.1-0.6-0.2-0.9C7.2,130.1,7.2,68.5,7.2,7z"/>
	<path d="M200,99.7c-0.2,0.7-0.4,1.4-0.6,2c-0.9,2.7-2.6,4.8-5,6.2c-13.9,7.9-27.8,15.7-41.7,23.6c-0.1,0.1-0.2,0.1-0.4,0.2
		c-7.8-8.6-15.6-17.3-23.5-26c0.2-0.3,0.4-0.5,0.6-0.7c10.5-10.7,21-21.4,31.4-32.1c0.6-0.6,1-0.6,1.7-0.2c10.6,6,21.2,12,31.7,17.9
		c3,1.7,4.8,4.3,5.6,7.6c0.1,0.2,0.1,0.4,0.2,0.7C200,99.2,200,99.5,200,99.7z"/>
	<path d="M144.1,62.3c-9.5,9.7-18.9,19.3-28.4,29C88.3,60.9,60.9,30.5,33.5,0.2c0-0.1,0.1-0.1,0.1-0.2
		C70.5,20.8,107.3,41.5,144.1,62.3z"/>
	<path d="M43.2,193c24-24.5,48-49,72-73.6c6.6,7.3,13.2,14.6,19.8,22c-30.6,17.3-61.2,34.5-91.7,51.8
		C43.3,193.1,43.2,193.1,43.2,193z"/>
</g>
</svg>
