<?xml version="1.0" encoding="utf-8"?>
<!-- Generator: Adobe Illustrator 22.1.0, SVG Export Plug-In . SVG Version: 6.00 Build 0)  -->
<svg version="1.1" xmlns="http://www.w3.org/2000/svg" xmlns:xlink="http://www.w3.org/1999/xlink" x="0px" y="0px"
	 viewBox="0 0 128 128" style="enable-background:new 0 0 128 128;" xml:space="preserve">
<style type="text/css">
	.st0{fill:#FFFFFF;}
</style>
<g id="Слой_2">
</g>
<g id="Слой_1">
	<g id="Слой_2_1_">
	</g>
	<g id="Слой_1_1_">
		<path class="st0" d="M123,10H5c-2.8,0-5-2.2-5-5v0c0-2.8,2.2-5,5-5l118,0c2.8,0,5,2.2,5,5v0C128,7.8,125.8,10,123,10z"/>
		<path class="st0" d="M123,69H5c-2.8,0-5-2.2-5-5v0c0-2.8,2.2-5,5-5h118c2.8,0,5,2.2,5,5v0C128,66.8,125.8,69,123,69z"/>
		<path class="st0" d="M123,128H5c-2.8,0-5-2.2-5-5v0c0-2.8,2.2-5,5-5h118c2.8,0,5,2.2,5,5v0C128,125.8,125.8,128,123,128z"/>
	</g>
</g>
</svg>
